<svg xmlns="http://www.w3.org/2000/svg" xmlns:svg="http://www.w3.org/2000/svg" id="svg5" width="16" height="16" version="1.1" viewBox="0 0 32 32"><metadata id="metadata11"/><g id="surface1" transform="matrix(1,0,0,1.1456034,0,-2.3279489)" style="fill:#000"><path style="fill:#000;fill-opacity:1;fill-rule:evenodd;stroke:none" id="path2" d="M 32,17.542969 V 14.339844 L 27.566406,13.058594 26.539062,10.878906 28.546875,7.203125 25.964844,4.941406 21.828125,6.761719 19.335938,5.859375 17.761719,2.019531 H 14.101562 L 12.664062,5.898438 10.125,6.796875 5.921875,5.042969 3.335938,7.296875 l 2.082031,3.625 -1.03125,2.179687 L 0,14.457031 v 3.183594 l 4.433594,1.28125 1.027344,2.179687 -2.007813,3.679688 2.582031,2.261719 4.136719,-1.824219 2.492187,0.902344 1.574219,3.835937 H 17.875 l 1.4375,-3.878906 2.539062,-0.898437 4.207032,1.761718 2.582031,-2.261718 -2.101563,-3.621094 1.074219,-2.179688 L 32,17.5 Z M 16,22 c -3.792969,0 -6.855469,-2.679688 -6.855469,-6 0,-3.320312 3.0625,-6 6.855469,-6 3.792969,0 6.855469,2.679688 6.855469,6 0,3.320312 -3.0625,6 -6.855469,6 z m 0,0"/></g></svg>